<?xml version="1.0" encoding="UTF-8"?>
<svg width="51px" height="51px" viewBox="0 0 51 51" version="1.1" xmlns="http://www.w3.org/2000/svg" xmlns:xlink="http://www.w3.org/1999/xlink">
    <!-- Generator: Sketch 46.2 (44496) - http://www.bohemiancoding.com/sketch -->
    <title>ui/ux icon</title>
    <desc>Created with Sketch.</desc>
    <defs></defs>
    <g id="Page-1" stroke="none" stroke-width="1" fill="none" fill-rule="evenodd">
        <g id="Homepage" transform="translate(-245.000000, -3091.000000)" fill-rule="nonzero" fill="#D0D0D0">
            <g id="Our-service" transform="translate(0.000000, 2734.000000)">
                <g id="Group-5" transform="translate(215.000000, 308.000000)">
                    <g id="1">
                        <g id="ui/ux-icon" transform="translate(30.000000, 49.000000)">
                            <path d="M0,42.3829787 C0,46.5957447 3.44680851,50.0425532 7.65957447,50.0425532 C11.0425532,50.0425532 13.9148936,47.8085106 14.9361702,44.7446809 L36.0638298,44.7446809 C37.0851064,47.8085106 39.9574468,50.0425532 43.3404255,50.0425532 C47.5531915,50.0425532 51,46.5957447 51,42.3829787 C51,38.8085106 48.5744681,35.8085106 45.2553191,34.9787234 L45.2553191,15.0638298 C48.5744681,14.2340426 51,11.2340426 51,7.65957447 C51,3.44680851 47.5531915,0 43.3404255,0 C39.9574468,0 37.0851064,2.23404255 36.0638298,5.29787234 L14.9361702,5.29787234 C13.9148936,2.23404255 11.0425532,0 7.65957447,0 C3.44680851,0 0,3.44680851 0,7.65957447 C0,11.2340426 2.42553191,14.2340426 5.74468085,15.0638298 L5.74468085,35.0425532 C2.4893617,35.8723404 0,38.8723404 0,42.3829787 Z M7.65957447,46.212766 C5.55319149,46.212766 3.82978723,44.4893617 3.82978723,42.3829787 C3.82978723,40.2765957 5.55319149,38.5531915 7.65957447,38.5531915 C9.76595745,38.5531915 11.4893617,40.2765957 11.4893617,42.3829787 C11.4893617,44.4893617 9.76595745,46.212766 7.65957447,46.212766 Z M47.2340426,42.3829787 C47.2340426,44.4893617 45.5106383,46.212766 43.4042553,46.212766 C41.2978723,46.212766 39.5744681,44.4893617 39.5744681,42.3829787 C39.5744681,40.2765957 41.2978723,38.5531915 43.4042553,38.5531915 C45.5106383,38.5531915 47.2340426,40.2765957 47.2340426,42.3829787 Z M43.4042553,3.82978723 C45.5106383,3.82978723 47.2340426,5.55319149 47.2340426,7.65957447 C47.2340426,9.76595745 45.5106383,11.4893617 43.4042553,11.4893617 C41.2978723,11.4893617 39.5744681,9.76595745 39.5744681,7.65957447 C39.5744681,5.55319149 41.2978723,3.82978723 43.4042553,3.82978723 Z M15.1914894,9.06382979 L35.8723404,9.06382979 C36.4468085,11.9361702 38.6170213,14.2978723 41.4893617,15 L41.4893617,34.9787234 C38.6808511,35.6808511 36.4468085,38.0425532 35.8723404,40.9148936 L15.1914894,40.9148936 C14.6170213,38.0425532 12.4468085,35.6808511 9.57446809,34.9787234 L9.57446809,15.0638298 C12.4468085,14.2978723 14.6170213,12 15.1914894,9.06382979 Z M3.82978723,7.65957447 C3.82978723,5.55319149 5.55319149,3.82978723 7.65957447,3.82978723 C9.76595745,3.82978723 11.4893617,5.55319149 11.4893617,7.65957447 C11.4893617,9.76595745 9.76595745,11.4893617 7.65957447,11.4893617 C5.55319149,11.4893617 3.82978723,9.76595745 3.82978723,7.65957447 Z" id="Shape"></path>
                        </g>
                    </g>
                </g>
            </g>
        </g>
    </g>
</svg>