<?xml version="1.0" encoding="UTF-8"?>
<svg width="50px" height="50px" viewBox="0 0 50 50" version="1.1" xmlns="http://www.w3.org/2000/svg" xmlns:xlink="http://www.w3.org/1999/xlink">
    <!-- Generator: Sketch 46.2 (44496) - http://www.bohemiancoding.com/sketch -->
    <title>web appli icon</title>
    <desc>Created with Sketch.</desc>
    <defs></defs>
    <g id="Page-1" stroke="none" stroke-width="1" fill="none" fill-rule="evenodd">
        <g id="Homepage" transform="translate(-646.000000, -3269.000000)" fill-rule="nonzero" fill="#D0D0D0">
            <g id="Our-service" transform="translate(0.000000, 2734.000000)">
                <g id="Group-5" transform="translate(215.000000, 308.000000)">
                    <g id="5" transform="translate(401.000000, 178.000000)">
                        <g id="web-appli-icon" transform="translate(30.000000, 49.000000)">
                            <path d="M49.6962763,39.0123006 L35.3808014,24.6968257 L47.2226465,12.8549807 C49.4331242,10.6445029 49.4331242,7.01300378 47.2226465,4.80252604 L45.17006,2.74993957 C42.9595823,0.539461829 39.3280831,0.539461829 37.1176054,2.74993957 L25.2757604,14.5917846 L10.9602855,0.276309718 C10.5918725,-0.0921032392 9.96030744,-0.0921032392 9.53926406,0.276309718 L0.276309718,9.53926406 C-0.0921032392,9.90767701 -0.0921032392,10.5392421 0.276309718,10.9602855 L14.5917846,25.2757604 L3.38150464,36.4860403 C2.64467872,37.2228662 2.17100492,38.1175834 1.96048323,39.1175614 L0.11841845,48.2226245 C0.0131576056,48.6962983 0.171048873,49.1173417 0.486831407,49.4857546 C0.749983519,49.7489068 1.11839648,49.906798 1.43417901,49.906798 C1.53943985,49.906798 1.59207028,49.906798 1.69733112,49.8541676 L10.8023942,48.0121028 C11.8023722,47.8015811 12.7497198,47.3279073 13.4339153,46.5910814 L24.6441953,35.3808014 L38.9596702,49.6962763 C39.1701919,49.906798 39.433344,50.0120589 39.6438657,50.0120589 C39.9070178,50.0120589 40.1701699,49.906798 40.3280612,49.6962763 L49.5910155,40.433322 C50.1173197,40.0122786 50.1173197,39.3807135 49.6962763,39.0123006 Z M38.5386268,4.11833055 C39.2754527,3.38150464 40.2228003,3.01309168 41.1701479,3.01309168 C42.1174955,3.01309168 43.0648431,3.38150464 43.801669,4.11833055 L45.8542555,6.17091702 C47.2752769,7.59193843 47.2752769,9.96030744 45.8542555,11.4339593 L45.6437338,11.644481 L38.3807355,4.38148266 L38.5386268,4.11833055 Z M2.43415704,10.2234595 L10.27609,2.38152661 L12.7497198,4.85515647 L8.85506857,8.74980772 C8.48665561,9.11822068 8.48665561,9.74978575 8.85506857,10.1708291 C9.06559026,10.3813508 9.32874237,10.4866117 9.53926406,10.4866117 C9.74978575,10.4866117 10.0655683,10.3813508 10.2234595,10.1708291 L14.1181108,6.27617787 L16.5917407,8.74980772 L12.6970894,12.644459 C12.3286764,13.0128719 12.3286764,13.644437 12.6970894,14.0654804 C12.9076111,14.2760021 13.1707632,14.3812629 13.3812849,14.3812629 C13.644437,14.3812629 13.9075891,14.2760021 14.0654804,14.0654804 L17.9601316,10.1708291 L20.4337615,12.644459 L16.5391102,16.5391102 C16.1706973,16.9075232 16.1706973,17.5390883 16.5391102,17.9601316 C16.7496319,18.1706533 17.012784,18.2759142 17.2233057,18.2759142 C17.4338274,18.2759142 17.7496099,18.1706533 17.9075012,17.9601316 L21.8021525,14.0654804 L23.8021085,16.0654364 L15.9601756,23.9073694 L2.43415704,10.2234595 Z M4.80252604,37.9070617 L36.9070837,5.80250407 L39.8543874,8.74980772 L7.53930801,41.0648871 L4.59200435,38.1175834 C4.64463478,38.0123226 4.74989562,37.9596921 4.80252604,37.9070617 Z M4.59200435,47.2752769 L2.69730915,45.3805817 L3.74991759,40.1175395 L9.80241617,46.170038 L4.59200435,47.2752769 Z M12.0655243,45.17006 C12.0128939,45.2226904 11.9076331,45.2753209 11.8550026,45.3279513 L8.90769899,42.3806476 L41.2227783,10.0655683 L44.170082,13.0128719 L12.0655243,45.17006 Z M39.7491265,47.538429 L26.1178471,33.9071496 L33.95978,26.0652167 L35.9597361,28.0651727 L32.0650848,31.959824 C31.6966719,32.328237 31.6966719,32.959802 32.0650848,33.3808454 C32.2756065,33.5913671 32.5387586,33.6966279 32.7492803,33.6966279 C32.959802,33.6966279 33.2755846,33.5913671 33.4334758,33.3808454 L37.3281271,29.4861941 L39.8017569,31.959824 L35.9071057,35.8544753 C35.5386927,36.2228882 35.5386927,36.8544533 35.9071057,37.2754967 C36.1176274,37.4860183 36.3807795,37.5912792 36.5913012,37.5912792 C36.8544533,37.5912792 37.1176054,37.4860183 37.2754967,37.2754967 L41.1701479,33.3808454 L43.6437778,35.8544753 L39.7491265,39.7491265 C39.3807135,40.1175395 39.3807135,40.7491045 39.7491265,41.1701479 C39.9596482,41.3806696 40.2228003,41.4859304 40.433322,41.4859304 C40.6438437,41.4859304 40.9596262,41.3806696 41.1175175,41.1701479 L45.0121687,37.2754967 L47.4857986,39.7491265 L39.7491265,47.538429 Z" id="Shape"></path>
                        </g>
                    </g>
                </g>
            </g>
        </g>
    </g>
</svg>