<?xml version="1.0" encoding="UTF-8"?>
<svg width="51px" height="52px" viewBox="0 0 51 52" version="1.1" xmlns="http://www.w3.org/2000/svg" xmlns:xlink="http://www.w3.org/1999/xlink">
    <!-- Generator: Sketch 46.2 (44496) - http://www.bohemiancoding.com/sketch -->
    <title>mobile icon</title>
    <desc>Created with Sketch.</desc>
    <defs></defs>
    <g id="Page-1" stroke="none" stroke-width="1" fill="none" fill-rule="evenodd">
        <g id="Homepage" transform="translate(-245.000000, -3268.000000)" fill-rule="nonzero" fill="#D0D0D0">
            <g id="Our-service" transform="translate(0.000000, 2734.000000)">
                <g id="Group-5" transform="translate(215.000000, 308.000000)">
                    <g id="4" transform="translate(0.000000, 178.000000)">
                        <g id="mobile-icon" transform="translate(30.000000, 48.000000)">
                            <path d="M50.9990038,26.9533352 L50.9990038,24.2332739 L50.9990038,24.0123018 C50.9805707,23.7189373 50.932985,23.4281358 50.8569503,23.1441971 C50.5432166,21.9943391 49.7683019,21.0252197 48.7156254,20.4662257 C48.4562939,20.3271844 48.1829304,20.2160754 47.9001331,20.1347675 C47.7580796,20.0874163 47.6160261,20.0663714 47.4739726,20.0348039 L47.1793432,19.9821915 L46.0218702,19.7927869 L44.6697314,19.5612923 C44.330955,18.4927124 43.9033006,17.4543747 43.39125,16.4571604 L44.06995,15.4733084 L44.74865,14.5315463 L44.9170097,14.2947905 L45.0064508,14.1685207 L45.1274594,13.9843773 C45.2832922,13.7349918 45.4137221,13.4706069 45.5167912,13.1951912 C45.9275154,12.0673041 45.8454233,10.8187403 45.2905578,9.75433994 C45.1528291,9.49123185 44.9889002,9.24269438 44.8012624,9.01250502 C44.7118214,8.90728021 44.5908128,8.7757492 44.5171555,8.70209183 L44.3119671,8.49690345 L43.4964748,7.66562745 L42.6809825,6.83435145 L42.4757941,6.62916306 L42.3390019,6.51341577 L42.1759034,6.3608398 C41.9522351,6.1614454 41.7089812,5.98517445 41.4498522,5.83471575 C40.6776158,5.39389421 39.7892084,5.19932564 38.9034118,5.27702425 C38.4613545,5.31625373 38.0281807,5.42454718 37.6196691,5.59795992 C37.2638132,5.74686338 36.925121,5.93384968 36.6095109,6.15565142 L34.5997171,7.57618636 C33.6322663,7.07337199 32.6258652,6.64934634 31.5902875,6.30822739 L31.3693154,5.01922346 L31.1799107,3.89331799 L31.1272983,3.59868852 C31.0957309,3.45137379 31.0694247,3.30405905 31.0220735,3.16200556 C30.9394596,2.87381557 30.8265918,2.59517321 30.6853541,2.33072955 C30.1149533,1.25771963 29.1269699,0.467713651 27.9547703,0.147314735 C27.6691593,0.0697989362 27.3766395,0.0204582423 27.0814044,0 L26.855171,0 L24.1245872,0 C23.9141376,0 23.8036515,0 23.4564096,0 C23.1560855,0.0180814047 22.8582683,0.0656616698 22.56726,0.142053494 C21.3920591,0.465334947 20.4022607,1.2590771 19.8314149,2.33599079 C19.6901906,2.60227581 19.5773315,2.8826603 19.4946955,3.17252804 C19.4473443,3.31458153 19.4210381,3.46189627 19.3894707,3.609211 L19.3368583,3.89857923 L19.1421924,5.01922346 L18.9212203,6.28192119 C17.8952405,6.61749131 16.8976956,7.03445452 15.9380969,7.5288352 L14.8858488,6.79226152 L13.928303,6.15565142 L13.6810247,5.98729172 C13.554755,5.90837311 13.4337464,5.82419326 13.2969542,5.75579714 C13.0345374,5.6128024 12.7576376,5.49816234 12.4709394,5.4138165 C11.3138654,5.06684898 10.0648437,5.2134567 9.01956562,5.81893202 C8.76417004,5.97010079 8.52447596,6.14634644 8.30403691,6.34505608 L8.14093845,6.49763205 L8.0304524,6.6081181 L7.83052526,6.81330648 L7.0308167,7.62353752 L6.23110814,8.43376857 C5.85334982,8.78783866 5.52744718,9.19344575 5.26303988,9.63859265 C4.6836489,10.6770911 4.55803192,11.9085181 4.91579801,13.0426153 C5.00320965,13.3222941 5.11958805,13.5920804 5.26303988,13.8475851 C5.33143601,13.9738548 5.41561586,14.0948634 5.49453447,14.2158719 L5.66289416,14.4526277 L6.32581047,15.3786061 L7.14656399,16.515034 C6.63484813,17.5413723 6.21239082,18.6098372 5.88386626,19.708607 L3.93194603,20.0874163 L3.45317314,20.1873799 C3.29533592,20.2242086 3.15854367,20.2452536 2.92704909,20.3136497 C2.47944947,20.430439 2.05568962,20.6245139 1.67487384,20.8871249 C0.995543798,21.3531406 0.483041979,22.0241862 0.212248975,22.8022164 C0.0928948713,23.1410801 0.0237665097,23.4955845 0.00706059491,23.8544646 C-0.00235353164,24.0139167 -0.00235353164,24.1737853 0.00706059491,24.3332374 L0.0438892786,24.6804793 C0.238555178,26.4798236 0.512139686,27.5320717 0.880426522,27.3110996 C1.24871336,27.0901275 1.51177539,26.0536631 1.72748625,24.3069312 C1.82384682,23.5586263 2.30782061,22.9166611 3.00070646,22.618073 C3.19575538,22.5381607 3.40130256,22.4867739 3.61101036,22.4654971 L4.56329489,22.3392273 L6.59413374,22.0340753 L7.18339267,21.939373 C7.58479083,21.8739449 7.91254688,21.5830614 8.02519116,21.1922768 L8.02519116,21.1607094 C8.44883264,19.6845468 9.06252218,18.2697006 9.85084162,16.951717 C10.0708188,16.5800594 10.056472,16.1148128 9.81401294,15.7574154 L9.81401294,15.7574154 L8.51974777,13.8370626 L7.87787642,12.9005618 L7.72003921,12.6690672 C7.72003921,12.621716 7.66216556,12.5743649 7.63585936,12.5270137 C7.58504946,12.4316023 7.54448707,12.3310781 7.51485083,12.227123 C7.39409761,11.8091733 7.45120666,11.3599155 7.67268804,10.9854702 C7.81931025,10.7620438 7.99639244,10.5601701 8.1988121,10.3856888 L9.01430438,9.58598024 L9.84558038,8.78627168 L10.0507688,8.58634454 L10.1454711,8.49164221 L10.2033447,8.43902981 C10.2816644,8.37153268 10.3662249,8.31163572 10.4558843,8.26014763 C10.8212845,8.05947475 11.253051,8.01762954 11.6501859,8.14440034 C11.7473566,8.17421076 11.8408869,8.21479941 11.9290316,8.26540887 C11.9763828,8.26540887 12.0132115,8.32328251 12.0605626,8.34432748 L12.2815347,8.50216469 L13.2127743,9.165081 L15.0752535,10.4856524 C15.4921746,10.7801028 16.0418032,10.8067638 16.4852659,10.5540485 L16.4852659,10.5540485 C17.8083885,9.79928337 19.2229534,9.21754358 20.6942583,8.82310036 C21.1932322,8.68898911 21.5701893,8.27925318 21.6623266,7.77085226 L22.0463972,5.56639248 L22.2200181,4.57727926 L22.304198,4.10902885 C22.321357,4.02286651 22.3460029,3.93836607 22.3778553,3.85648931 C22.5055033,3.5291687 22.7463165,3.25848713 23.0565553,3.09360943 C23.4037972,2.91472725 23.5826794,2.91472725 24.3876492,2.91998849 L26.8499098,2.91998849 C26.9384191,2.92187379 27.0265293,2.93244702 27.1129718,2.95155594 C27.2864383,2.98653038 27.4521843,3.05247234 27.6022672,3.14622184 C27.90711,3.33581165 28.1331911,3.62915657 28.2388773,3.9722366 C28.2757059,4.07746141 28.3441021,4.49836065 28.4019757,4.80877384 L28.5808579,5.79262582 L28.933361,7.73402358 L28.933361,7.73402358 C29.0011371,8.23961474 29.3664684,8.65476393 29.8593393,8.78627168 C31.3308869,9.17515551 32.7457117,9.75346515 34.0683318,10.5066973 L34.0683318,10.5066973 C34.4844502,10.7422961 34.9993505,10.7156279 35.3889031,10.4383012 L37.246121,9.11772983 L38.1773606,8.45481353 L38.403594,8.29697631 C38.4509451,8.29697631 38.4930351,8.23384143 38.5403862,8.21279646 C38.6336544,8.16000109 38.7324617,8.11765509 38.8350157,8.08652669 C39.2511416,7.9515961 39.7046032,7.99541802 40.0871909,8.20753522 C40.3204307,8.35143479 40.5313606,8.52868683 40.7132786,8.73365928 L41.5235096,9.53336784 L42.3390019,10.3278152 C42.541587,10.5080903 42.7185979,10.715193 42.8651259,10.9433803 C43.0920864,11.3332875 43.1491413,11.7992355 43.0229631,12.2323842 C42.9923181,12.3401501 42.9499763,12.4442402 42.8966934,12.5427974 C42.8966934,12.5954098 42.8388197,12.6374997 42.8125135,12.6901122 L42.6546763,12.9163455 L42.0075437,13.8528463 L40.7606297,15.7311092 L40.7606297,15.7311092 C40.5193235,16.0825725 40.5029209,16.541845 40.7185398,16.9096271 C41.5004958,18.2387245 42.1053995,19.6643162 42.5178841,21.1501869 L42.5178841,21.1501869 C42.6148108,21.5543284 42.9405318,21.8635572 43.3491601,21.939373 L46.1113113,22.4023622 L46.8005338,22.5181095 L46.9741548,22.5496769 L47.0846408,22.5496769 C47.1558733,22.5647901 47.2261466,22.5841153 47.2950905,22.6075505 C47.5705111,22.7087387 47.8164131,22.8768923 48.0106192,23.0968459 C47.9812638,23.0316963 47.9478779,22.9684389 47.9106556,22.9074413 C47.9495817,22.9674551 47.9830374,23.0308448 48.0106192,23.0968459 C48.2104696,23.3555738 48.3327149,23.6657484 48.3631223,23.9912568 C48.3679712,24.0718563 48.3679712,24.1526744 48.3631223,24.2332739 L48.3631223,24.6226057 L48.3631223,25.4117917 L48.3210324,26.9901639 C48.3210324,27.1111724 48.3210324,27.2795321 48.3210324,27.3531895 C48.3159877,27.4292641 48.3054376,27.5048731 48.2894649,27.5794228 C48.2569275,27.7257029 48.2056451,27.8671714 48.1368889,28.0003221 C47.9956762,28.2603852 47.7841964,28.4755112 47.526585,28.6211485 C47.1979172,28.7809777 46.8395517,28.8705691 46.4743369,28.8842105 L43.3491601,29.3682446 C42.8488968,29.4475336 42.4391617,29.8081004 42.296912,30.294223 L42.296912,30.3468354 C41.8736992,31.8022725 41.2654415,33.1973752 40.4870452,34.4979541 C40.2080958,34.9633779 40.2245165,35.5483648 40.5291351,35.9974077 L40.5291351,36.0342364 L41.8076166,37.9124992 L42.4494879,38.8542613 L42.6073251,39.0857559 C42.6073251,39.1278458 42.6546763,39.1594132 42.6757213,39.2015032 C42.7160496,39.2803015 42.747799,39.363203 42.7704236,39.4487815 C42.8683438,39.7903288 42.8227426,40.1570381 42.6441538,40.4642009 C42.221507,40.9471816 41.7680959,41.4023501 41.2867538,41.8268622 L40.4765227,42.6265708 L40.2713344,42.8264979 L40.176632,42.9212002 L40.1292809,42.9632901 C40.0656894,43.0187634 39.9969864,43.0680886 39.9240925,43.1106049 C39.626264,43.2739883 39.2745008,43.3082139 38.950763,43.2053072 C38.8716843,43.1809955 38.7957488,43.1474426 38.7245296,43.1053436 C38.687701,43.1053436 38.6561335,43.0579925 38.6193048,43.0369475 L38.3983327,42.8791103 L37.4670932,42.2214552 L35.6151365,40.8798389 C35.1095758,40.5332228 34.4490534,40.5106583 33.921017,40.8219653 L33.921017,40.8219653 C32.6218369,41.5661056 31.2318601,42.1390731 29.785682,42.5266072 C29.1831098,42.6815509 28.7277806,43.1760261 28.6229478,43.7893049 L28.6229478,43.7893049 L28.2283548,46.0305934 L28.0284276,47.1512376 L27.9810765,47.4195609 C27.9810765,47.4563896 27.9810765,47.4984795 27.949509,47.5353082 C27.9279112,47.6120302 27.8979161,47.6861357 27.8600679,47.7562803 C27.7065157,48.0439301 27.4424818,48.2566768 27.1287555,48.3455392 C26.8969589,48.3930859 26.6595565,48.4072592 26.4237493,48.3876291 L23.6563368,48.3876291 C23.5764684,48.3825237 23.4972263,48.3701972 23.4195809,48.3508004 C23.1038906,48.2632064 22.8377628,48.0503041 22.6830073,47.7615415 C22.6431015,47.691744 22.6113267,47.6176029 22.5883049,47.5405694 C22.5883049,47.5037407 22.5883049,47.4616508 22.5567375,47.4195609 L22.5093863,47.1933275 L22.3094592,46.0726833 L21.9096049,43.8261336 L21.9096049,43.8261336 C21.8175661,43.2084365 21.3699763,42.7030932 20.7679157,42.5371297 C19.321004,42.1493423 17.9308383,41.5745282 16.6325807,40.8272265 L16.6325807,40.8272265 C16.099199,40.5198885 15.4358021,40.5506964 14.9332,40.9061451 L13.0654596,42.216194 L12.13422,42.8738491 L11.9132479,43.0316863 C11.8764192,43.0316863 11.8448518,43.0790374 11.8080231,43.0948212 C11.7365612,43.135099 11.6606345,43.1668823 11.5817898,43.1895235 C11.2617396,43.2878412 10.9153062,43.2497716 10.624244,43.0842987 C10.5532071,43.0414555 10.4862803,42.992141 10.4243168,42.9369839 L10.3769657,42.894894 L10.2822633,42.8054529 L10.0823362,42.6055258 L9.2773664,41.800556 L8.4723966,40.9955862 C8.29014593,40.8438261 8.13067535,40.6666365 7.99888496,40.4694621 C7.83577782,40.1774573 7.7996419,39.8313132 7.89892139,39.5119164 C7.91976233,39.43909 7.94796788,39.3685761 7.98310123,39.3014667 C7.98310123,39.2646381 8.0304524,39.2330706 8.04623612,39.1962419 L8.20407334,38.9700086 L8.8617284,38.038769 L10.1717773,36.1447224 C10.521136,35.6434757 10.5498274,34.9856235 10.2454347,34.4558642 L10.2454347,34.4558642 C9.49939912,33.1563801 8.92801187,31.7641765 8.54605397,30.3152679 C8.39189972,29.714216 7.89987737,29.2592497 7.28861749,29.1525338 L7.28861749,29.1525338 L4.30549411,28.6264097 L3.77937005,28.5422299 L3.46895686,28.5001399 C3.28420923,28.4698171 3.10616644,28.4075022 2.94283281,28.3159965 C2.6613677,28.1427812 2.42369974,27.9069138 2.24834906,27.626774 C2.02211572,27.2690097 1.83271106,27.2479647 1.72222501,27.7319988 C1.67231336,28.0695451 1.7254931,28.4142965 1.87480098,28.721112 C2.09387315,29.1916067 2.46436609,29.5750669 2.92704909,29.8101888 C3.22823369,29.9429475 3.5419695,30.0451761 3.8635499,30.1153408 L4.8631856,30.383664 L6.83088956,30.9097881 C7.1241943,32.3963547 7.60690322,33.839177 8.26720822,35.2029604 L7.08869035,36.6708465 L6.41525156,37.5389512 L6.24689186,37.7599233 C6.19427946,37.8283194 6.13640581,37.907238 6.06274844,38.0072016 C5.92943708,38.1982777 5.81657735,38.4028359 5.72602905,38.6175055 C5.3449734,39.5097638 5.3449734,40.5189658 5.72602905,41.4112242 C5.82525863,41.6367877 5.94687665,41.8518225 6.08905464,42.0530955 C6.2230576,42.2392345 6.3707837,42.4150989 6.53099885,42.5792196 L7.31492369,43.4157568 L8.14093845,44.2312491 L8.53553149,44.6521484 C8.71028213,44.8366937 8.9023186,45.0040649 9.10900671,45.1519662 C10.216595,45.925871 11.6535129,46.04829 12.8760549,45.4729019 C12.9971362,45.4166695 13.1148368,45.3534274 13.228558,45.2834972 L13.3969177,45.1782724 L13.5179263,45.0940926 L14.4912558,44.4364375 L15.8854845,43.5104592 C16.1643303,43.6630351 16.4484372,43.8103499 16.7325442,43.9471421 C17.5732008,44.358287 18.4416872,44.7099009 19.3315971,44.9993902 L19.5893978,46.5777624 L19.7735413,47.7036679 L19.8208924,47.9930361 C19.8524599,48.1245671 19.8735048,48.2560981 19.9103335,48.3876291 C19.9835755,48.6482584 20.0840947,48.9004383 20.2102242,49.1399865 C20.7207655,50.1169477 21.6115086,50.8402007 22.6724848,51.1392579 C23.1470749,51.2573603 23.6358142,51.3087133 24.1245872,51.2918339 L25.2610151,51.2918339 L26.4027043,51.2918339 C26.6078927,51.2918339 26.7341625,51.2918339 27.0498369,51.2918339 C27.3251475,51.2765573 27.5982907,51.2342642 27.8653292,51.1655641 C28.9500395,50.8771034 29.8675912,50.1537225 30.4012471,49.1662927 C30.5350472,48.9222955 30.6426259,48.6648121 30.7221828,48.3981516 C30.7642727,48.2666206 30.7905789,48.1298283 30.8221464,47.9930361 L30.8747588,47.7036679 L31.0852084,46.5830236 L31.3482704,45.1572274 C32.4663659,44.8157639 33.5525445,44.3774196 34.5944558,43.8471786 L35.7729737,44.688977 L36.698952,45.3518933 L36.9357079,45.520253 C37.0567164,45.5991717 37.1724637,45.6780903 37.2987335,45.7464864 C37.5492899,45.8860288 37.8138011,45.9988868 38.0879195,46.0832058 C39.1982917,46.4330143 40.4039567,46.3073051 41.4182848,45.7359639 C41.8540777,45.4736184 42.2508033,45.1512788 42.5968027,44.7784181 L43.39125,43.9471421 L44.201481,43.1474336 L44.4066694,42.9475064 L44.5171555,42.8370204 L44.6644702,42.6791832 C44.8627877,42.4641024 45.0390437,42.229682 45.1905942,41.9794382 C45.779141,40.9587484 45.9200231,39.7403084 45.579926,38.6122442 C45.4963877,38.3327973 45.3835198,38.0629724 45.2432067,37.8072744 C45.1748105,37.6757434 45.0958919,37.5599961 45.0169733,37.4337264 L44.8433524,37.1969705 L44.1909585,36.2604697 L43.4280787,35.1450867 C43.9419029,34.1564539 44.3730418,33.1269998 44.7170826,32.067261 L46.0218702,31.8410277 L47.1425145,31.6463618 L47.4318827,31.5937494 C47.5739362,31.5621819 47.7212509,31.5358757 47.8580432,31.4937858 C48.1407122,31.4121073 48.4140374,31.3010138 48.6735355,31.1623276 C49.7262713,30.6046564 50.5027344,29.6378837 50.8201216,28.4896175 C50.895753,28.2055921 50.9433321,27.9148308 50.9621751,27.6215128 C51.0095263,27.2795321 50.9990038,27.1585236 50.9990038,26.9533352 Z M47.8422595,22.8337839 L47.8738269,22.8811351 L47.8422595,22.8337839 Z M13.6915472,28.5843198 C13.1654232,26.9796414 12.8813162,25.6853763 12.2447061,25.8169073 C11.9185091,25.9010871 11.6501859,26.3903825 11.4765649,27.232181 C11.4251039,27.726778 11.4145456,28.2247783 11.4449975,28.721112 C11.5043318,29.3519732 11.6313316,29.974625 11.8238068,30.5783299 C12.1996813,31.7668654 12.7303632,32.9007557 13.402179,33.9507851 C13.7478226,34.474894 14.1274455,34.9757854 14.5386069,35.4502387 C14.9463333,35.9315541 15.3876272,36.3833968 15.8591783,36.8023775 C17.2905718,38.0634102 18.9594795,39.02576 20.7679157,39.6329249 C21.0678064,39.7434109 21.3782196,39.8012846 21.6833716,39.8854644 C21.9872402,39.9739255 22.2965566,40.0424672 22.6093499,40.0906528 C26.6713499,40.8147683 30.8482255,39.7504129 34.0683318,37.1706643 C37.277355,34.6364076 39.238676,30.8422197 39.4505808,26.7586693 C39.6911601,24.9528376 39.565912,23.1170591 39.082294,21.3606365 C38.5768538,19.5678906 37.7162612,17.8950131 36.5516373,16.4413766 C34.1885301,13.4623918 30.7380759,11.5450522 26.9603958,11.11174 C23.1664815,10.6780057 19.3519908,11.7301489 16.3169062,14.0475122 C13.2937464,16.3715689 11.2649287,19.7560655 10.6400277,23.5177452 C10.548823,24.2152911 10.6488412,24.9245106 10.9293959,25.569629 C11.2976828,26.2009778 11.6501859,25.3697018 11.981644,24.2595801 C12.4370476,22.9229076 13.0480387,21.6444176 13.8020333,20.4504419 C13.8034112,20.7584668 13.9596034,21.0451487 14.2176713,21.2133218 C15.255245,21.9970867 16.5067038,22.4466577 17.8058373,22.5023257 L18.8580854,22.5865056 C18.4926243,24.3985876 18.465867,26.262677 18.7791668,28.0845019 C18.7791668,28.2528616 18.7791668,28.4159601 18.8159955,28.610626 C17.121876,28.6158872 15.4014504,28.6632384 13.6915472,28.5843198 Z M27.2181966,31.6463618 L27.7443207,31.6831905 L27.6917083,31.8305052 L27.3076377,32.7406998 L27.1234943,33.1984277 L26.9025222,33.6403719 C26.7587149,33.9350014 26.6184152,34.2348921 26.4816229,34.5400441 L26.0291562,35.4081488 C25.871319,35.697517 25.7345268,36.0131914 25.5503834,36.2920372 C25.3460441,36.6050784 25.23643,36.9704586 25.2347089,37.3442853 L24.9769081,37.3442853 C24.9656752,37.0184659 24.8656148,36.7019114 24.6875399,36.4288294 C24.4959982,36.1260245 24.3203848,35.8134328 24.1614159,35.4923286 C24.0035786,35.1713929 23.814174,34.8715022 23.6773817,34.5453053 C23.398536,33.8929115 23.0670778,33.2720851 22.8145383,32.6196913 C22.6724848,32.3040168 22.546215,31.9830812 22.4199452,31.6621455 C24.0180352,31.7601568 25.620786,31.7548846 27.2181966,31.6463618 L27.2181966,31.6463618 Z M33.3001907,34.276982 C31.8338322,35.6315411 30.0438284,36.5863307 28.102085,37.0496558 L28.2914897,36.8023775 C28.5282455,36.4814418 28.8176137,36.1762899 29.0070184,35.8343092 C29.4534611,35.1714947 29.8340784,34.4666479 30.1434463,33.729813 C30.3889381,33.1063859 30.5962634,32.468597 30.7642727,31.8199827 C32.317993,31.8621877 33.8728464,31.8112377 35.4204706,31.6674067 C34.8302615,32.6194816 34.1173875,33.4897892 33.3001907,34.2559371 L33.3001907,34.276982 Z M31.4640177,26.1115367 C31.677161,25.098619 31.7515001,24.061411 31.6849898,23.0284498 C32.9798459,23.027956 34.2733108,22.9435996 35.5572628,22.7759102 C35.875851,22.7433202 36.1786766,22.6210954 36.4306288,22.4234071 C36.5916628,22.9912654 36.7129646,23.5696466 36.7936544,24.1543553 C37.0353619,25.8366111 36.9170031,27.5510207 36.4464125,29.1841012 C36.3632945,29.1643114 36.2789164,29.1502484 36.1938729,29.1420113 C34.8393838,28.9721213 33.4761965,28.8807737 32.1111503,28.8684268 L31.3430092,28.8684268 C31.4448802,27.953198 31.4853069,27.0321714 31.4640177,26.1115367 Z M35.5783078,20.3610008 L35.5256954,20.3610008 C34.255807,20.191143 32.9766506,20.0997747 31.6955123,20.0874163 L31.2009557,20.0874163 C31.1115146,19.7612194 31.011551,19.4350225 30.901065,19.1140868 C30.3063296,17.4554091 29.5074982,15.8771868 28.5229843,14.415799 C30.4630303,15.0243456 32.2194913,16.1096973 33.6316488,17.5725434 C34.4097203,18.404822 35.0651978,19.3437491 35.5783078,20.3610008 L35.5783078,20.3610008 Z M26.2448671,13.9422874 C26.3354742,14.5676218 26.4672922,15.1862877 26.6394601,15.7942441 C26.7401948,16.1372388 26.8596282,16.4744626 26.9972245,16.8044022 C27.1076131,17.1458446 27.2358122,17.4812698 27.3812951,17.8092992 C27.7076846,18.5912094 27.9801526,19.3945505 28.1967873,20.2136861 L25.5345996,20.3610008 C24.6236182,20.1379584 23.6965538,19.9866727 22.7619259,19.9085342 C23.394407,18.0789965 24.3633342,16.3838201 25.6187795,14.9103557 C25.7241208,14.6742963 25.7241208,14.4045801 25.6187795,14.1685207 C25.5621225,14.0305507 25.4548237,13.919487 25.3188888,13.8581075 L26.2448671,13.9422874 Z M14.364986,19.7822644 C14.3204197,19.7834163 14.2769138,19.7961055 14.2387162,19.8190931 C14.4386434,19.5349861 14.6438317,19.2561403 14.8595426,18.9825558 C15.5209213,18.1707284 16.2669729,17.4317317 17.0850473,16.778096 C17.9044428,16.1074785 18.7997169,15.5353506 19.7524963,15.0734541 C20.8983618,14.5090227 22.1308231,14.1408849 23.398536,13.9843773 C23.7971313,13.9214068 24.1998372,13.8879945 24.6033601,13.8844138 C23.8870427,14.1026495 23.2277314,14.4763191 22.6724848,14.9787518 C22.3698985,15.2362421 22.0851372,15.5139723 21.8201638,15.8100278 C21.583408,16.1257022 21.3624359,16.4571604 21.1519863,16.799141 C20.597222,17.7623942 20.117045,18.7667205 19.7156676,19.8033093 C17.9268458,19.8033093 16.1432853,19.8769667 14.364986,19.7822644 Z M27.0814044,22.8443064 C27.4654749,22.8758738 27.8495455,22.9127025 28.233616,22.9337475 L28.7018664,22.9337475 C28.8703611,24.5342897 28.9231106,26.1449065 28.8597036,27.7530438 C28.7650013,28.1634205 28.6966052,28.5737973 28.5913804,28.9789128 L28.5913804,28.9789128 C27.5706997,29.0315252 26.5552803,29.0946601 25.5345996,29.1420113 C24.2085857,28.8425291 22.8577018,28.6664034 21.4992282,28.6158872 C21.3089991,27.7709148 21.184114,26.9125494 21.1256801,26.0484019 C21.3571747,24.9382801 21.5939305,23.8597258 21.8622537,22.8022164 C23.5985139,22.9457808 25.3430546,22.9598497 27.0814044,22.8443064 L27.0814044,22.8443064 Z M19.3368583,31.4727408 C19.8362395,33.4277211 20.7119036,35.2666158 21.9148662,36.8865573 L21.8201638,36.8865573 L21.1414638,36.639279 C20.6888229,36.4718624 20.2461524,36.2786332 19.8156312,36.0605426 C18.959286,35.609184 18.1592895,35.058193 17.4322892,34.4190355 C16.2283179,33.3764157 15.2460774,32.1025445 14.5438682,30.6730323 C15.4194989,31.0641108 16.3590769,31.2923195 17.3165419,31.3464711 L19.3368583,31.4727408 Z" id="Shape"></path>
                        </g>
                    </g>
                </g>
            </g>
        </g>
    </g>
</svg>