<?xml version="1.0" encoding="UTF-8"?>
<svg width="51px" height="51px" viewBox="0 0 51 51" version="1.1" xmlns="http://www.w3.org/2000/svg" xmlns:xlink="http://www.w3.org/1999/xlink">
    <!-- Generator: Sketch 46.2 (44496) - http://www.bohemiancoding.com/sketch -->
    <title>motion icon</title>
    <desc>Created with Sketch.</desc>
    <defs></defs>
    <g id="Page-1" stroke="none" stroke-width="1" fill="none" fill-rule="evenodd">
        <g id="Homepage" transform="translate(-1044.000000, -3091.000000)" fill-rule="nonzero" fill="#D0D0D0">
            <g id="Our-service" transform="translate(0.000000, 2734.000000)">
                <g id="Group-5" transform="translate(215.000000, 308.000000)">
                    <g id="3" transform="translate(799.000000, 0.000000)">
                        <g id="motion-icon" transform="translate(30.000000, 49.000000)">
                            <path d="M5.38366229,38.9620942 C6.0715852,38.8278558 6.69954114,38.255067 6.89019083,36.9661502 C6.94280335,36.6424989 6.97165538,36.3336367 7.02766227,36.0151047 C7.08593205,35.698848 7.14363611,35.3888481 7.20020872,35.0816923 C7.32749709,34.4730687 7.43272214,33.917913 7.66070975,33.3906288 C8.10593617,32.3371981 8.76500705,31.5363177 9.93945439,31.063639 C12.3036237,30.1529788 12.5700806,31.4060609 12.5706464,31.4066297 C13.1850249,30.1046302 13.9855273,29.5443552 14.6530841,29.2138783 C15.3042348,28.8987592 15.7568156,28.8447225 15.7568156,28.8447225 C15.753987,28.83164 16.4515273,28.339053 15.4965816,28.2451999 C15.4965816,28.2451999 15.0937847,28.4346126 14.3685238,28.5205025 C13.6262912,28.5989979 12.6153387,28.5802272 11.3577297,27.8350899 C11.3577297,27.8350899 11.491241,28.1411082 11.3096429,28.5108328 C11.2202582,28.6962639 11.0482775,28.902172 10.7529685,29.1018233 C10.4684083,29.2986306 10.0492052,29.4943002 9.43256382,29.6467405 C8.81648812,29.798612 8.2518935,29.8219331 7.71332227,29.7314928 C7.18945992,29.6387772 6.70802703,29.4305938 6.23394858,29.1427774 C5.76326448,28.8555299 5.29427757,28.4886493 4.83490799,28.0808146 C4.40099609,27.661035 3.95916402,27.2338608 3.4901771,26.7788152 C2.54484883,25.8840816 1.70757423,25.8556413 1.08753845,26.2168338 C0.466936946,26.5672189 0.0737573225,27.2901727 0.0154875365,27.5956222 C-0.0133644934,27.7469248 -0.00997013697,28.1388329 0.0963863656,28.6382456 C0.237252159,29.1348141 0.487868811,29.7383185 0.898585943,30.2889237 C1.10677314,30.5636576 1.34154946,30.8270152 1.64364719,31.0528317 C1.95253363,31.2769416 2.30441525,31.4680608 2.7026864,31.6068498 C3.49979445,31.8867028 4.48019774,31.9515469 5.68519428,31.7120791 C5.13417709,31.9998955 4.67141315,32.316721 4.28728515,32.6568676 C3.91560311,32.9924638 3.63047717,33.3491059 3.40927828,33.7171241 C2.97480065,34.4503164 2.78641386,35.2398206 2.79885984,35.9411598 C2.85203809,37.3444069 3.49696582,38.4404981 3.74531957,38.6134155 C3.97330717,38.812498 4.70139664,39.1048648 5.38366229,38.9620942 Z" id="Shape"></path>
                            <path d="M15.861369,44.9496054 C15.5898657,44.3834708 15.343147,43.779855 15.1167065,43.2215523 C14.8964622,42.65318 14.6874836,42.1390716 14.6029908,41.572937 C14.4103475,40.4686389 14.5314537,39.456086 15.262034,38.4384982 C16.753612,36.4223431 17.6582473,37.310145 17.6582473,37.310145 C17.5624889,36.6075116 17.6109314,36.0363422 17.7235883,35.5630716 C17.8458211,35.0797314 18.0412809,34.6831015 18.2249118,34.3798951 C18.6000594,33.7723633 18.9515491,33.4848206 18.9515491,33.4848206 C18.9419732,33.4758699 19.2557228,32.6971551 18.4000933,33.1318257 C18.4000933,33.1318257 18.1663301,33.503841 17.6047352,33.9636855 C17.0324379,34.4173763 16.1830046,34.9359601 14.7128314,35.0081254 C14.7128314,35.0081254 14.9927839,35.1865809 15.0440428,35.5854485 C15.0947384,35.9815189 14.9313859,36.6304479 14.0763196,37.5367107 C13.2021017,38.4614345 12.2433911,38.7948497 11.1331568,38.8295339 C10.0026443,38.8882731 8.84284106,38.5699623 7.56024169,38.3512285 C6.29848387,38.1101178 5.60733349,38.5168172 5.25809695,39.1651868 C4.89646814,39.8096404 4.98715698,40.5967465 5.09868736,40.8837297 C5.21134431,41.1584057 5.96896229,42.1910978 7.28423217,42.6341597 C7.92525021,42.866879 8.66653293,42.9692532 9.49399822,42.7583512 C10.3130142,42.5597566 11.169207,42.086486 12.051311,41.2434378 C10.7884266,43.387141 11.13541,45.095055 11.885142,46.2877416 C12.6855696,47.4065847 13.8019999,47.9850265 14.1056104,47.9934179 C14.4018982,48.0348151 15.1707819,47.8860089 15.6670357,47.4026687 C16.1728654,46.9232445 16.3931098,46.114321 15.861369,44.9496054 Z" id="Shape"></path>
                            <path d="M27.814165,47.4562075 C25.696119,46.0361545 23.7102445,44.8587236 23.8545315,42.3787084 C23.9167622,41.1408965 24.2747263,40.6408315 24.593039,40.3751548 C24.9135545,40.1242989 25.2214036,40.1835821 25.2214036,40.1835821 C24.3127256,39.1752182 24.1491635,38.1679522 24.1232799,37.473021 C24.1073092,36.776443 24.2427849,36.3521288 24.2427849,36.3521288 C24.2312199,36.3422482 24.06931,35.5655281 23.6056088,36.3510309 C23.6056088,36.3510309 23.6083624,36.7945573 23.3935839,37.4603959 C23.1683419,38.1245876 22.7459443,39.0138361 21.5751264,39.8564265 C21.5751264,39.8564265 21.9005984,39.8514862 22.1550282,40.150647 C22.4078059,40.4487099 22.6203815,41.0585587 22.3978931,42.2716693 C22.1748539,43.4847798 21.5635614,44.2713805 20.6664484,44.8911098 C19.7638282,45.5454211 18.6458788,45.8681853 17.4668002,46.3786798 C16.3058952,46.8265976 15.9462789,47.540192 16.0063068,48.2532376 C16.052016,48.9728701 16.5399486,49.5942462 16.789422,49.7616665 C17.0333883,49.9164616 18.2025541,50.3962166 19.5286733,50.0569848 C20.1851244,49.8961516 20.8476333,49.6140073 21.4154194,49.0014139 C21.9837562,48.4014457 22.4364431,47.5555618 22.7118,46.3935006 C22.7745814,47.5873991 23.0879377,48.5326373 23.5576967,49.2226282 C24.026905,49.8956027 24.6437046,50.3440693 25.2643593,50.6317028 C25.8850139,50.941293 26.5073207,50.9786195 26.999659,50.9994784 C27.4930987,51.0066143 27.8571207,50.9390973 27.9881906,50.8847544 C28.2547361,50.7936338 28.803798,50.2282475 28.9552443,49.5706427 C29.1160528,48.9009618 28.8676808,48.1297308 27.814165,47.4562075 Z" id="Shape"></path>
                            <path d="M40.2137654,43.1835373 C39.8717516,42.9634032 39.4186517,42.8539035 38.7756657,42.824401 C38.1348687,42.8136213 37.5351133,42.8034089 36.9457551,42.7937638 C36.3525663,42.7585877 35.7779831,42.68086 35.2586694,42.5543396 C34.2249668,42.3177522 33.3351837,41.710114 32.72722,40.6202232 C32.1159729,39.5161486 32.1318423,38.8517748 32.2724784,38.4824261 C32.3496367,38.3042763 32.44157,38.153927 32.5313145,38.0767666 C32.6177756,37.9939326 32.6900089,37.9615934 32.6900089,37.9615934 C32.0470229,37.7942234 31.5419369,37.476504 31.1599759,37.1587847 C30.7780149,36.8416327 30.512065,36.5114316 30.3172539,36.2169739 C29.9314623,35.6246543 29.8143568,35.1775778 29.8143568,35.1775778 C29.8143568,35.1775778 29.6649652,35.0334694 29.5319902,35.0090731 C29.3913541,34.9710602 29.2649458,35.0368735 29.275343,35.5100484 C29.2758903,35.5100484 29.5139319,35.8896095 29.6950624,36.5919961 C29.7837124,36.9437568 29.854304,37.3777841 29.8439068,37.8986168 C29.8329623,38.4194496 29.7448596,39.0424064 29.4641347,39.6835186 C29.4641347,39.6835186 29.5347263,39.6432363 29.6512846,39.6216768 C29.7683901,39.6001173 29.9325568,39.6018194 30.1158762,39.6466405 C30.4836094,39.7533034 30.9854121,40.152722 31.4521925,41.3311202 C31.9178785,42.5100859 31.8341535,43.5477798 31.4242842,44.6058987 C31.2130565,45.1051719 30.9219343,45.5982042 30.5952427,46.1082572 C30.2685511,46.6194449 29.9068373,47.1482206 29.5429346,47.6508979 C28.8123931,48.6857552 28.8994015,49.5214704 29.3317069,50.0967694 C29.7530679,50.6720683 30.502215,50.9852487 30.8020927,51 C31.0877426,50.9971632 32.3129729,50.7083791 33.2514587,49.7274206 C34.1872085,48.7050453 34.7634334,47.1164487 33.9415058,44.7653257 C35.3177694,46.7709289 37.0300273,47.2685 38.3581353,47.0137572 C38.6930352,46.9604258 39.0071407,46.8713509 39.291149,46.7658227 C39.5718739,46.6551883 39.8088211,46.5071084 40.0173127,46.372645 C40.4304653,46.09691 40.6953208,45.8308201 40.7752153,45.7082712 C40.8556569,45.5857224 40.9448541,45.3366531 40.9842541,45.0376565 C41.020918,44.7352558 40.996293,44.3698786 40.8813763,44.0391101 C40.7653653,43.7043701 40.5530431,43.3985652 40.2137654,43.1835373 Z" id="Shape"></path>
                            <path d="M49.1845448,32.2756291 C48.8975219,32.0593969 48.5406202,31.9205532 48.1213474,31.9302267 C47.7090046,31.9410383 47.2192755,32.095246 46.6382996,32.434958 C46.0654088,32.7871888 45.5283237,33.1172273 45.0016339,33.4410065 C44.4420259,33.7391792 43.9020533,34.002641 43.3695883,34.1858693 C43.1027783,34.2774834 42.8400108,34.3503195 42.5737784,34.3958421 C42.2959956,34.4356743 42.0187904,34.4504692 41.7421628,34.4362434 C41.1883299,34.4089298 40.6339195,34.2626886 40.0569862,33.9713443 C38.9083171,33.3823962 38.5560355,32.8105191 38.476339,32.4184561 C38.4439984,32.2227091 38.4619013,32.0542757 38.4896218,31.9342099 C38.5208074,31.8158513 38.5658532,31.7475674 38.5658532,31.7475674 C37.9092234,31.9683518 37.2676089,31.9751802 36.7634419,31.9273815 C36.2511898,31.8744616 35.8348045,31.7458603 35.4998482,31.6064475 C34.8322457,31.3242077 34.4828517,31.0112401 34.4828517,31.0106711 C34.4834292,31.0112401 34.2789903,30.9788053 34.1328801,31.0243278 C33.9838823,31.0698504 33.9116934,31.2007277 34.181391,31.5962049 C34.181391,31.5962049 34.6012414,31.7811403 35.1487216,32.273353 C35.4207292,32.5214509 35.7221899,32.8492133 35.9999726,33.2959034 C36.1385752,33.5195329 36.2725577,33.7744592 36.3892149,34.0646655 C36.4925893,34.3440602 36.579216,34.6587348 36.6392771,35.0160869 C36.6392771,35.0160869 36.8015576,34.7275877 37.2046602,34.6211787 C37.5881274,34.5022511 38.2511098,34.555171 39.3131522,35.2880842 C40.369997,36.0175831 40.8834042,36.9553478 41.0849554,38.063822 C41.2489685,39.132464 41.1865973,40.4275806 41.0970832,41.6891245 C41.0283594,42.9802579 41.566022,43.6357827 42.263655,43.8747761 C42.953203,44.1205979 43.780776,43.9544406 44.0579812,43.80194 C44.3357639,43.6648033 45.219933,42.7002942 45.5335213,41.3664833 C45.6588412,40.6779547 45.6368958,39.9052093 45.3267725,39.1262046 C45.1725771,38.7364177 44.9461928,38.3449237 44.6349145,37.956844 C44.314396,37.5630739 43.9101384,37.174425 43.4140566,36.7926046 C45.727565,37.708177 47.5351739,37.1778392 48.5700733,36.212192 C49.6794716,35.2835319 49.9861298,34.0322307 49.9999901,33.7460076 C50.0017226,33.4438517 49.7764934,32.7092314 49.1845448,32.2756291 Z" id="Shape"></path>
                            <path d="M50.7170088,28.231282 C50.4890594,27.6117502 50.0237321,26.9971527 49.3653966,26.5267471 C48.6976325,26.0536002 47.7974821,25.7284831 46.5995,25.6215727 C47.806356,25.3918525 48.6488258,24.9521494 49.2777664,24.3923777 C49.8867407,23.8353473 50.3137991,23.1615379 50.4624376,22.5113036 C50.6349249,21.8594246 50.6465719,21.2283793 50.5972106,20.7376882 C50.543967,20.2475453 50.3870091,19.9032391 50.3149083,19.7809775 C50.1573959,19.5353578 49.5556317,19.0633075 48.8762206,19.0073851 C48.1934817,18.9421424 47.4447429,19.300155 46.9039871,20.442177 C46.7714326,20.7305608 46.6427605,21.0096243 46.517416,21.2832051 C46.3826431,21.5600756 46.2351138,21.834753 46.0959038,22.0979169 C45.8124923,22.6253414 45.5268623,23.1132912 45.2035181,23.533257 C44.4847288,24.3841539 43.6361582,24.945022 42.4010165,25.0618011 C41.1647655,25.1752905 40.5702114,24.891841 40.289573,24.6144223 C40.1492538,24.4729717 40.0865816,24.3260385 40.0594052,24.2120008 C40.0338926,24.0985113 40.0361111,24.0195621 40.0361111,24.0195621 C39.087154,25.059608 38.1720288,25.3638914 37.4798613,25.4877977 C36.7777107,25.6023837 36.3390052,25.5289171 36.3390052,25.5283688 C36.3384506,25.541527 35.5370228,25.8123666 36.4005682,26.1621554 C36.4005682,26.1621554 36.8342821,26.0952679 37.537542,26.2125951 C38.2358102,26.3408876 39.2474395,26.6413331 40.1880773,27.6654795 C40.1880773,27.6654795 40.1531362,27.3469415 40.4326653,27.0552681 C40.709976,26.7652395 41.2379755,26.4620526 42.4903105,26.5102994 C43.1125956,26.5366158 43.6483599,26.668746 44.1264435,26.897918 C44.3660399,27.0125039 44.5906615,27.1512133 44.8053,27.3102082 C45.0116191,27.4692031 45.1968626,27.647387 45.3782238,27.84476 C46.0997862,28.6309623 46.7070965,29.7060968 47.3088607,30.7790382 C47.9400198,31.8645895 48.7198174,32.1200779 49.4075478,31.9534074 C50.0919506,31.7971538 50.6687568,31.2340925 50.8107398,30.9659942 C50.9826724,30.7159885 51.1712437,29.4763766 50.7170088,28.231282 Z" id="Shape"></path>
                            <path d="M40.5362738,9.49523568 C40.6372565,10.1063984 40.712123,10.7374005 40.7695787,11.3314794 C40.8171683,11.9321714 40.8804276,12.4705898 40.7985968,13.0299497 C40.6662746,14.1282792 40.2507364,15.0530142 39.2322037,15.8151766 C37.1701826,17.3135999 36.5370093,16.2235369 36.5370093,16.2229858 C36.4261604,16.9146082 36.2108466,17.4420047 35.9612916,17.8591825 C35.7070937,18.2780136 35.3913775,18.6031588 35.1226706,18.8379247 C34.5736495,19.3096608 34.1436024,19.4854596 34.1436024,19.4854596 C34.1505667,19.4970326 33.610251,20.1467719 34.5817746,19.9693198 C34.5817746,19.9693198 34.9218659,19.6822 35.6113342,19.4016934 C36.3182133,19.1250444 37.3001834,18.8709903 38.7725581,19.2066063 C38.7725581,19.2066063 38.5485389,18.9613697 38.6176018,18.5695421 C38.6889862,18.1788168 39.0319793,17.6155992 40.1410483,16.9928635 C41.2744924,16.359657 42.3284272,16.3034454 43.4293711,16.5795433 C43.9696868,16.7195211 44.5686189,16.9179148 45.1042917,17.1840929 C45.6579556,17.4546799 46.2214857,17.7302267 46.8198374,18.0228573 C47.4280553,18.3028129 47.9045313,18.4091739 48.3223909,18.3672908 C48.7379291,18.327061 49.07744,18.1435468 49.341504,17.8894927 C49.8731143,17.3857932 50.0251687,16.6104046 49.9967311,16.3078542 C49.9799006,16.1585078 49.8580249,15.794235 49.6049877,15.35832 C49.3565934,14.9213028 48.9044925,14.4429536 48.3456053,14.0423086 C48.0623894,13.8439149 47.7437714,13.6686672 47.3920729,13.5375069 C47.0357316,13.408551 46.6236756,13.3347045 46.1936284,13.3148651 C45.3265698,13.2768396 44.3422783,13.4879085 43.2250842,14.0434108 C45.0979077,12.3625754 45.2505425,10.65143 44.8541563,9.32053902 C44.3956714,8.03924651 43.4543266,7.1933179 43.1595035,7.10183637 C42.8797697,6.98114689 42.0782918,6.91005582 41.4480202,7.23024117 C40.8090433,7.54271122 40.3546209,8.24645769 40.5362738,9.49523568 Z" id="Shape"></path>
                            <path d="M29.7506185,4.48317117 C30.1853543,4.95741396 30.604979,5.49200456 30.9961249,5.96112348 C31.3849461,6.44162878 31.7383143,6.90049995 31.9893916,7.42541213 C32.5049139,8.44904782 32.6868287,9.45958918 32.2561613,10.6733774 C31.8272375,11.8746407 31.2983477,12.3044766 30.9042957,12.4627473 C30.507919,12.6141862 30.2173202,12.4599007 30.2173202,12.4599007 C30.5177993,13.1151869 30.6369448,13.6839367 30.6636799,14.176967 C30.6782099,14.6950474 30.6038166,15.1282992 30.5090814,15.4784304 C30.3149614,16.1775542 30.0516789,16.558998 30.0516789,16.558998 C30.063884,16.5663991 29.9796104,17.4106993 30.6968082,16.7434574 C30.6968082,16.7428881 30.8211845,16.3136215 31.2431339,15.7033114 C31.6720577,15.106665 32.3654264,14.3511786 33.7998221,13.8621336 C33.7998221,13.8621336 33.4697018,13.7687652 33.3034793,13.3941533 C33.1372568,13.0223879 33.1087781,12.3448982 33.6940441,11.211384 C34.2891904,10.0613594 35.1389013,9.46812896 36.2309715,9.11572046 C37.3364093,8.73541532 38.5731978,8.72402893 39.9111146,8.56974347 C41.2257835,8.45246374 41.7959383,7.85410939 41.9511181,7.12424234 C42.121409,6.39380597 41.8075623,5.64401276 41.6099551,5.39920556 C41.4158351,5.16635405 40.3696795,4.36646076 38.9323779,4.30839021 C37.5282045,4.18370934 35.8438939,4.87201609 34.6140799,7.01948763 C34.9075846,5.81708575 34.8831743,4.76327615 34.6018747,3.96622945 C34.3281307,3.15381114 33.8370187,2.51958969 33.2930178,2.0453469 C32.1724688,1.1737194 30.887441,0.94883837 30.5910302,1.00918619 C30.2853203,1.05530104 29.5681225,1.42535843 29.2188228,2.04079235 C28.8602238,2.65508763 28.8805658,3.50678896 29.7506185,4.48317117 Z" id="Shape"></path>
                            <path d="M17.7166494,5.62432476 C18.3380588,5.82662286 18.9190018,6.01570263 19.4910754,6.20133413 C20.0526166,6.39386216 20.5953105,6.6576543 21.0637234,6.93351535 C22.0055384,7.47776623 22.6945767,8.30937237 22.9867112,9.56281604 C23.2755196,10.8185586 23.0742961,11.4547631 22.8348234,11.7691298 C22.5992311,12.1214273 22.2876949,12.1587835 22.2876949,12.1587835 C22.5787207,12.3472886 22.8215194,12.5432649 23.0271776,12.7409653 C23.2367162,12.95993 23.40856,13.1788947 23.5510241,13.3909629 C23.8348435,13.815674 24.0022527,14.2168219 24.1097936,14.5627977 C24.3215496,15.2547492 24.3104629,15.7231383 24.3104629,15.7231383 C24.3243212,15.7294601 24.69628,16.4438253 24.9302093,15.5524492 C24.9302093,15.5524492 24.8016036,15.1104968 24.8210053,14.3765915 C24.8514937,13.6541803 25.0111422,12.5863682 25.9052843,11.4357977 C25.9052843,11.4357977 25.8260145,11.4524643 25.7057238,11.4363724 C25.5859874,11.4294759 25.4257847,11.4059127 25.2589299,11.2955683 C24.9291006,11.0771783 24.5504899,10.5346516 24.4224385,9.25017351 C24.2954958,7.96627018 24.6641285,6.98868756 25.3526125,6.09213913 C25.6951914,5.6266236 26.1120513,5.26398125 26.5682689,4.86570685 C27.0339102,4.47720253 27.5078665,4.08122697 28.0123113,3.66111357 C29.0023534,2.88353022 29.1475891,2.04445284 28.8848344,1.35307607 C28.7573373,1.00882446 28.5356034,0.703653163 28.3077717,0.470895397 C28.0799401,0.242160604 27.8449021,0.110551892 27.7029924,0.0605520753 C27.5610827,0.0134258115 27.1808089,-0.0268039258 26.6835705,0.0226211801 C26.1868865,0.0697474439 25.5737921,0.200781446 24.9884144,0.57089503 C24.4030368,0.922617876 23.8487019,1.44100678 23.4706455,2.18180866 C23.0903718,2.93410475 22.8941372,3.93869876 22.9556684,5.18352178 C22.557656,4.0007675 21.99168,3.16571309 21.3392279,2.59387611 C20.6873301,2.01571731 19.9694664,1.78813194 19.2848628,1.67951165 C18.9439468,1.63123596 18.6119002,1.61916704 18.3075704,1.64158075 C18.0076752,1.67951165 17.7316164,1.7421551 17.4921438,1.81399391 C17.0126441,1.95767155 16.6800432,2.13755595 16.5680675,2.23238318 C16.4560919,2.32778513 16.2986608,2.54042803 16.1783701,2.82203619 C16.0630684,3.11456385 15.9826899,3.47030967 16.0032003,3.82777963 C16.0453297,4.55651258 16.4937866,5.23007333 17.7166494,5.62432476 Z" id="Shape"></path>
                            <path d="M6.27117439,13.2642195 C6.65827576,13.373228 7.13237857,13.3516534 7.76011052,13.1915471 C8.38123477,13.0144083 8.96271279,12.8491922 9.53317797,12.6862472 C10.120713,12.5522575 10.6911782,12.4551718 11.2280542,12.4262164 C11.4967676,12.4125903 11.7588732,12.4171323 12.0143711,12.4460877 C12.2737235,12.4795852 12.5352785,12.5460122 12.7836181,12.6351494 C13.2836011,12.8156948 13.7516468,13.1080875 14.2004201,13.5463926 C15.0924602,14.427545 15.2582035,15.0713766 15.2240637,15.4688036 C15.1992848,15.6641105 15.1442206,15.8276233 15.0814474,15.9315221 C15.0203261,16.0365564 14.9603061,16.0887896 14.9603061,16.0887896 C15.6249311,16.060402 16.2064091,16.223347 16.6590369,16.4124087 C17.1144179,16.6043091 17.4613224,16.8427653 17.7305864,17.0687309 C18.2652598,17.5235009 18.4998333,17.9186568 18.4998333,17.9186568 C18.4998333,17.9186568 18.6809946,18.0089295 18.8219589,17.9992777 C18.9711829,17.9970067 19.0730517,17.8914047 18.9342899,17.4400412 C18.9342899,17.4400412 18.6000502,17.1465131 18.2327719,16.5248238 C18.05106,16.211992 17.8638417,15.8157005 17.731137,15.3109683 C17.6645093,15.0588861 17.6121983,14.7789839 17.5835649,14.4678554 C17.5615392,14.1669464 17.5697989,13.8467339 17.611097,13.4873463 C17.611097,13.4873463 17.5549315,13.5469604 17.4486576,13.6031679 C17.3451369,13.6639175 17.1793936,13.7008214 16.9888715,13.7104732 C16.605074,13.717854 16.0120325,13.4839398 15.2383804,12.4892369 C14.4680321,11.4973728 14.2565856,10.4646305 14.3689166,9.34104775 C14.4360949,8.79997934 14.5787112,8.23733633 14.7527141,7.6508477 C14.8441207,7.35561626 14.9371792,7.0581138 15.031339,6.75436606 C15.1337584,6.46481213 15.2383804,6.16958069 15.3463062,5.86526519 C15.7631423,4.65027423 15.4503776,3.87358842 14.8760579,3.45118035 C14.3110991,3.024798 13.5055098,2.9538289 13.209815,3.02309474 C12.9229305,3.08781856 11.8420201,3.75492809 11.1966676,4.95402197 C10.5832524,6.21613641 10.457706,7.89952342 11.8948818,9.91788458 C10.0221481,8.39801037 8.23146013,8.41277194 7.02114888,9.04468079 C5.75302021,9.62094987 5.14015559,10.7371519 5.04434387,11.0017246 C4.95238665,11.28333 4.97441233,12.0583126 5.39400158,12.6357172 C5.59663786,12.9247033 5.88462366,13.1563465 6.27117439,13.2642195 Z" id="Shape"></path>
                            <path d="M1.2265405,25.8862072 C1.88021911,26.143378 2.72925653,26.00637 3.61495953,25.0411372 C4.06926903,24.5627321 4.44050806,24.080958 4.88966146,23.6441045 C5.33251296,23.2072511 5.76677097,22.8091417 6.21764307,22.4885204 C6.65304687,22.1645301 7.17209404,21.9315042 7.7014534,21.8046033 C8.23482306,21.678264 8.80256671,21.6636647 9.43447513,21.779897 C10.6948546,22.020784 11.1955689,22.4649371 11.3857717,22.8147568 C11.5593603,23.1651379 11.4843104,23.472283 11.4843104,23.472283 C11.7627397,23.2768781 12.0600747,23.1348165 12.3499619,23.0303759 C12.6341202,22.9242509 12.9010915,22.8540623 13.1514487,22.8080187 C13.6510172,22.7170543 14.0829836,22.7243539 14.441046,22.7636595 C15.1543062,22.8478857 15.5771062,23.0472212 15.5771062,23.0472212 C15.5645024,23.0298144 16.4456222,23.0000545 15.7002796,22.4160859 C15.7002796,22.4160859 15.2494075,22.3560045 14.5882812,22.0404368 C14.258291,21.8809684 13.8773126,21.6535576 13.4837305,21.307107 C13.2912362,21.1347239 13.0798362,20.9258428 12.8987999,20.6894478 C12.7206281,20.4536143 12.5476123,20.1795983 12.3883462,19.8572925 C12.3883462,19.8572925 12.3236085,20.1779138 11.9586714,20.3834258 C11.6303998,20.6007295 10.9864605,20.7332455 9.76732988,20.3312055 C8.55736562,19.9319731 7.79025286,19.180675 7.29469459,18.1901744 C6.83007289,17.219888 6.52930053,15.9778316 6.25602735,14.7565511 C5.95582789,13.5133717 5.2586089,13.0394587 4.52758882,13.0035222 C3.80172485,12.959163 3.06153838,13.3443577 2.84039908,13.5650305 C2.60264569,13.7649274 2.05094323,14.9323032 2.1185454,16.2793616 C2.27150963,17.6724637 3.09018337,19.1509151 5.43219752,20.0324831 C4.19416117,19.9224275 3.20189882,20.1094097 2.41301587,20.4828128 C2.01943375,20.6692335 1.6734023,20.9000134 1.38065053,21.1588688 C1.10737736,21.4205316 0.881081958,21.7085854 0.69603534,22.0039388 C0.334535602,22.595207 0.101365407,23.2094971 0.0389193347,23.7064319 C-0.0263912361,24.2044898 0.00168085134,24.5823849 0.0417838334,24.7233235 C0.121989797,25.0080082 0.572288996,25.638582 1.2265405,25.8862072 Z" id="Shape"></path>
                        </g>
                    </g>
                </g>
            </g>
        </g>
    </g>
</svg>