<?xml version="1.0" encoding="UTF-8"?>
<svg width="51px" height="42px" viewBox="0 0 51 42" version="1.1" xmlns="http://www.w3.org/2000/svg" xmlns:xlink="http://www.w3.org/1999/xlink">
    <!-- Generator: Sketch 46.2 (44496) - http://www.bohemiancoding.com/sketch -->
    <title>seo icon</title>
    <desc>Created with Sketch.</desc>
    <defs></defs>
    <g id="Page-1" stroke="none" stroke-width="1" fill="none" fill-rule="evenodd">
        <g id="Homepage" transform="translate(-1044.000000, -3273.000000)" fill-rule="nonzero" fill="#D0D0D0">
            <g id="Our-service" transform="translate(0.000000, 2734.000000)">
                <g id="Group-5" transform="translate(215.000000, 308.000000)">
                    <g id="6" transform="translate(799.000000, 178.000000)">
                        <g id="seo-icon" transform="translate(30.000000, 53.000000)">
                            <path d="M46.4135642,7.18064285 L36.305182,17.3148776 C36.3856635,17.6165958 36.4285714,17.9337091 36.4285714,18.2608696 C36.4285714,20.2779095 34.7976087,21.9130435 32.7857143,21.9130435 C30.7738198,21.9130435 29.1428571,20.2779095 29.1428571,18.2608696 C29.1428571,18.2180843 29.143591,18.1754711 29.1450467,18.1330417 L19.9249079,12.3557167 C19.4148612,12.6281877 18.8325609,12.7826087 18.2142857,12.7826087 C17.8879598,12.7826087 17.5716555,12.739591 17.270707,12.6589037 L7.16232481,22.7931385 C7.24280644,23.0948566 7.28571429,23.41197 7.28571429,23.7391304 C7.28571429,25.7561704 5.65475159,27.3913043 3.64285714,27.3913043 C1.6309627,27.3913043 0,25.7561704 0,23.7391304 C0,21.7220905 1.6309627,20.0869565 3.64285714,20.0869565 C3.96918307,20.0869565 4.28548732,20.1299742 4.58643583,20.2106615 L14.694818,10.0764267 C14.6143365,9.77470857 14.5714286,9.45759524 14.5714286,9.13043478 C14.5714286,7.11339483 16.2023913,5.47826087 18.2142857,5.47826087 C20.2261802,5.47826087 21.8571429,7.11339483 21.8571429,9.13043478 C21.8571429,9.17322 21.856409,9.2158332 21.8549533,9.2582627 L31.0750921,15.0355877 C31.5851388,14.7631167 32.1674391,14.6086957 32.7857143,14.6086957 C33.1120402,14.6086957 33.4283445,14.6517133 33.729293,14.7324006 L43.8376751,4.59816584 C43.7571937,4.29644765 43.7142857,3.97933443 43.7142857,3.65217391 C43.7142857,1.63513396 45.3452484,0 47.3571429,0 C49.3690373,0 51,1.63513396 51,3.65217391 C51,5.66921387 49.3690373,7.30434783 47.3571429,7.30434783 C47.030817,7.30434783 46.7145126,7.26133015 46.4135642,7.18064285 Z M3.64285714,32.8695652 L3.64285714,32.8695652 C4.64880437,32.8695652 5.46428571,33.6871323 5.46428571,34.6956522 L5.46428571,40.173913 C5.46428571,41.1824329 4.64880437,42 3.64285714,42 C2.63690992,42 1.82142857,41.1824329 1.82142857,40.173913 L1.82142857,34.6956522 C1.82142857,33.6871323 2.63690992,32.8695652 3.64285714,32.8695652 L3.64285714,32.8695652 Z M32.7857143,27.3913043 C33.7916614,27.3913043 34.6071429,28.2088714 34.6071429,29.2173913 L34.6071429,40.173913 C34.6071429,41.1824329 33.7916614,42 32.7857143,42 C31.7797672,42 30.9642857,41.1824329 30.9642857,40.173913 L30.9642857,29.2173913 C30.9642857,28.2088714 31.7797672,27.3913043 32.7857143,27.3913043 Z M47.3571429,12.7826087 C48.36309,12.7826087 49.1785714,13.6001758 49.1785714,14.6086957 L49.1785714,40.173913 C49.1785714,41.1824329 48.36309,42 47.3571429,42 C46.3511957,42 45.5357143,41.1824329 45.5357143,40.173913 L45.5357143,14.6086957 C45.5357143,13.6001758 46.3511957,12.7826087 47.3571429,12.7826087 Z M18.2142857,18.2608696 C19.2202328,18.2608696 20.0357143,19.0784366 20.0357143,20.0869565 L20.0357143,40.173913 L20.0357143,40.173913 C20.0357143,41.1824329 19.2202328,42 18.2142857,42 C17.2083386,42 16.3928571,41.1824329 16.3928571,40.173913 L16.3928571,20.0869565 C16.3928571,19.0784366 17.2083386,18.2608696 18.2142857,18.2608696 Z" id="Shape"></path>
                        </g>
                    </g>
                </g>
            </g>
        </g>
    </g>
</svg>